<svg xmlns="http://www.w3.org/2000/svg" viewBox="0 0 103.40 103.40"><circle cx="57.04" cy="13.77" r="4.63" fill="#5B87DA"/><circle cx="69.77" cy="26.50" r="5.15" fill="#5B87DA"/><circle cx="82.49" cy="39.23" r="5.66" fill="#5B87DA"/><circle cx="95.22" cy="51.96" r="6.17" fill="#5B87DA"/><circle cx="31.58" cy="13.77" r="4.12" fill="#1EDCFF"/><circle cx="44.31" cy="26.50" r="4.63" fill="#1EDCFF"/><circle cx="57.04" cy="39.23" r="5.15" fill="#1EDCFF"/><circle cx="69.77" cy="51.96" r="5.66" fill="#1EDCFF"/><circle cx="82.49" cy="64.69" r="6.17" fill="#1EDCFF"/><circle cx="6.12" cy="13.77" r="3.60" fill="#000"/><circle cx="18.85" cy="26.50" r="4.12" fill="#000"/><circle cx="31.58" cy="39.23" r="4.63" fill="#000"/><circle cx="44.31" cy="51.96" r="5.15" fill="#000"/><circle cx="57.04" cy="64.69" r="5.66" fill="#000"/><circle cx="69.77" cy="77.42" r="6.17" fill="#000"/><circle cx="31.58" cy="64.69" r="4.12" fill="#5B87DA"/><circle cx="18.85" cy="77.42" r="4.12" fill="#5B87DA"/><circle cx="6.12" cy="90.14" r="4.12" fill="#5B87DA"/><circle cx="31.58" cy="90.14" r="4.12" fill="#5B87DA"/><circle cx="57.04" cy="90.15" r="4.12" fill="#5B87DA"/><circle cx="44.31" cy="77.42" r="4.12" fill="#5B87DA"/></svg>
